<svg xmlns="http://www.w3.org/2000/svg" version="1.1" xmlns:xlink="http://www.w3.org/1999/xlink" width="512" height="512" x="0" y="0" viewBox="0 0 128 128" style="enable-background:new 0 0 512 512" xml:space="preserve" class=""><g><path d="M113.809 47.355a3.782 3.782 0 0 0-3.779 3.777v27.122a3.75 3.75 0 0 0 1.103 2.673 3.782 3.782 0 0 0 6.454-2.67V51.132a3.782 3.782 0 0 0-3.778-3.777zM99.577 29.568a3.784 3.784 0 0 0-3.78 3.779v60.92a3.784 3.784 0 0 0 3.78 3.778 3.781 3.781 0 0 0 3.776-3.778v-60.92a3.781 3.781 0 0 0-3.776-3.779zM85.346 11.779a3.782 3.782 0 0 0-3.777 3.779v96.499a3.78 3.78 0 0 0 3.777 3.777 3.782 3.782 0 0 0 3.779-3.777V15.558a3.783 3.783 0 0 0-3.779-3.779zM71.115 23.337a3.783 3.783 0 0 0-3.778 3.778v73.382a3.781 3.781 0 0 0 3.776 3.778 3.783 3.783 0 0 0 3.779-3.778l.002-73.382a3.782 3.782 0 0 0-3.779-3.778zM56.886 39.125a3.783 3.783 0 0 0-3.779 3.778V84.71a3.783 3.783 0 0 0 3.779 3.778 3.783 3.783 0 0 0 3.778-3.779V42.903a3.783 3.783 0 0 0-3.778-3.778zM42.655 15.337a3.783 3.783 0 0 0-3.778 3.778v89.382c0 2.083 1.695 3.778 3.778 3.778s3.777-1.695 3.777-3.778V19.118a3.75 3.75 0 0 0-1.105-2.674 3.75 3.75 0 0 0-2.672-1.107zM28.423 33.125a3.782 3.782 0 0 0-3.777 3.778V90.71a3.782 3.782 0 0 0 3.777 3.778 3.783 3.783 0 0 0 3.779-3.779V36.903a3.783 3.783 0 0 0-3.779-3.778zM14.194 47.356a3.783 3.783 0 0 0-3.779 3.778v25.345a3.783 3.783 0 0 0 3.779 3.779 3.782 3.782 0 0 0 3.777-3.779V51.136a3.752 3.752 0 0 0-1.106-2.674 3.753 3.753 0 0 0-2.671-1.106z" fill="#9abd53" opacity="1" data-original="#000000" class=""></path></g></svg>